<?xml version="1.0" encoding="UTF-8" standalone="no"?>
<!-- Created with Inkscape (http://www.inkscape.org/) -->

<svg
   xmlns:dc="http://purl.org/dc/elements/1.1/"
   xmlns:cc="http://creativecommons.org/ns#"
   xmlns:rdf="http://www.w3.org/1999/02/22-rdf-syntax-ns#"
   xmlns:svg="http://www.w3.org/2000/svg"
   xmlns="http://www.w3.org/2000/svg"
   xmlns:sodipodi="http://sodipodi.sourceforge.net/DTD/sodipodi-0.dtd"
   xmlns:inkscape="http://www.inkscape.org/namespaces/inkscape"
   width="1005.0982"
   height="856.16193"
   id="svg2"
   version="1.1"
   inkscape:version="0.48.5 r10040"
   sodipodi:docname="Documento nuevo 1">
  <defs
     id="defs4" />
  <sodipodi:namedview
     id="base"
     pagecolor="#ffffff"
     bordercolor="#666666"
     borderopacity="1.0"
     inkscape:pageopacity="0.0"
     inkscape:pageshadow="2"
     inkscape:zoom="0.24748737"
     inkscape:cx="617.74276"
     inkscape:cy="-193.60568"
     inkscape:document-units="px"
     inkscape:current-layer="layer1"
     showgrid="false"
     fit-margin-top="0"
     fit-margin-left="0"
     fit-margin-right="0"
     fit-margin-bottom="0"
     inkscape:window-width="1366"
     inkscape:window-height="768"
     inkscape:window-x="0"
     inkscape:window-y="0"
     inkscape:window-maximized="0" />
  <metadata
     id="metadata7">
    <rdf:RDF>
      <cc:Work
         rdf:about="">
        <dc:format>image/svg+xml</dc:format>
        <dc:type
           rdf:resource="http://purl.org/dc/dcmitype/StillImage" />
        <dc:title></dc:title>
      </cc:Work>
    </rdf:RDF>
  </metadata>
  <g
     inkscape:label="Capa 1"
     inkscape:groupmode="layer"
     id="layer1"
     transform="translate(-167.25961,565.15719)">
    <g
       id="g3859">
      <rect
         y="-394.17627"
         x="842.4469"
         height="181.82745"
         width="211.00276"
         id="rect3813"
         style="fill:#ffffff;fill-opacity:1;stroke:#000000;stroke-width:2.04586267;stroke-linecap:round;stroke-linejoin:round;stroke-miterlimit:4;stroke-opacity:0;stroke-dasharray:none" />
      <path
         inkscape:connector-curvature="0"
         id="rect2985"
         d="m 539.02747,-227.05767 c -10.69726,5.50562 -14.87682,18.54983 -9.3712,29.24711 L 668.78761,72.517578 c 5.50563,10.697265 18.54983,14.876822 29.24711,9.371201 L 1159.3123,-155.51959 c 10.6972,-5.50562 14.8768,-18.54983 9.3712,-29.24711 l -139.1314,-270.32814 c -5.5056,-10.69726 -18.5498,-14.87682 -29.2471,-9.3712 l -461.27753,237.40837 z m 349.61051,-120.63157 91.05472,-46.86366 c 10.69727,-5.50562 23.7415,-1.32608 29.2471,9.3712 l 46.8481,91.02455 c 5.5057,10.69727 1.3261,23.74148 -9.3712,29.2471 l -91.0547,46.86366 c -10.69726,5.50563 -23.74147,1.32608 -29.24709,-9.3712 l -46.84813,-91.02455 c -5.50564,-10.69727 -1.32608,-23.74148 9.3712,-29.2471 z m 47.77007,-19.8158 c -20.73461,10.6716 -28.88687,36.11446 -18.21528,56.84906 10.6716,20.73459 36.12999,28.91705 56.8646,18.24544 20.73458,-10.67158 28.93163,-36.1757 18.26008,-56.91028 -10.6716,-20.7346 -36.17481,-28.8558 -56.9094,-18.18422 z m 6.42123,61.26603 41.80529,-21.1727 c -3.84063,16.44667 -20.3007,26.68435 -36.74739,22.84372 -1.73358,-0.40482 -3.42094,-0.9713 -5.0579,-1.67102 z m 37.50054,23.47951 c -32.45799,16.70534 -54.14318,38.87201 -48.57474,49.69135 5.56845,10.81934 36.21005,6.05469 68.66802,-10.65065 32.458,-16.70534 54.0829,-38.84096 48.5144,-49.6603 -5.5684,-10.81934 -36.1497,-6.08574 -68.60768,10.6196 z"
         style="fill:#3771c8;fill-opacity:1;stroke:#000000;stroke-width:2.49739718;stroke-linecap:round;stroke-linejoin:round;stroke-miterlimit:4;stroke-opacity:0;stroke-dasharray:none" />
      <g
         id="text3011"
         style="font-size:121.32220458999999835px;font-style:normal;font-variant:normal;font-weight:bold;font-stretch:normal;line-height:125%;letter-spacing:0px;word-spacing:0px;fill:#ffffff;fill-opacity:1;stroke:none;font-family:Impact;-inkscape-font-specification:Impact Bold"
         transform="matrix(0.88914671,-0.45762225,0.45762225,0.88914671,0,0)">
        <path
           id="path3853"
           style="font-family:Liberation Mono;-inkscape-font-specification:Liberation Mono Bold;fill:#ffffff"
           d="m 669.98036,152.19554 0,66.40732 -17.47561,0 0,-66.40732 -24.05118,0 0,-13.50657 65.57797,0 0,13.50657 -24.05118,0" />
        <path
           id="path3855"
           style="font-family:Liberation Mono;-inkscape-font-specification:Liberation Mono Bold;fill:#ffffff"
           d="m 733.07027,219.78765 c -4.30475,0 -8.1948,-0.53316 -11.67015,-1.59947 -3.4359,-1.1058 -6.35837,-2.90272 -8.76742,-5.39078 -2.36959,-2.52754 -4.20601,-5.86468 -5.50926,-10.01145 -1.26379,-4.14673 -1.89567,-9.30055 -1.89566,-15.46147 l 0,-48.63551 17.47561,0 0,48.45779 c -3e-5,3.5149 0.19744,6.49661 0.59239,8.94514 0.3949,2.40909 1.00704,4.36399 1.83642,5.8647 0.86882,1.46125 1.99436,2.52756 3.37664,3.19893 1.38222,0.63189 3.06067,0.94784 5.03535,0.94783 1.97461,1e-5 3.69255,-0.33568 5.15382,-1.00707 1.4612,-0.71086 2.68548,-1.83641 3.67284,-3.37665 0.98728,-1.5402 1.7179,-3.55434 2.19186,-6.04241 0.47387,-2.48803 0.71082,-5.52898 0.71087,-9.12286 l 0,-47.8654 17.47561,0 0,47.74692 c -6e-5,6.16092 -0.69119,11.37398 -2.07337,15.63919 -1.38232,4.22575 -3.37671,7.66163 -5.98318,10.30765 -2.56709,2.60653 -5.68703,4.50219 -9.35982,5.68698 -3.63339,1.14529 -7.7209,1.71794 -12.26255,1.71794" />
        <path
           id="path3857"
           style="font-family:Liberation Mono;-inkscape-font-specification:Liberation Mono Bold;fill:#ffffff"
           d="m 779.63241,138.68897 54.26325,0 0,13.50657 -18.42344,0 0,52.90075 18.42344,0 0,13.50657 -54.26325,0 0,-13.50657 18.42344,0 0,-52.90075 -18.42344,0 0,-13.50657" />
      </g>
      <rect
         ry="55.594219"
         rx="44.684258"
         y="-563.8819"
         x="168.5349"
         height="853.61133"
         width="455.83417"
         id="rect3003"
         style="opacity:0.98000004;fill:#000000;fill-opacity:1;stroke:#000000;stroke-width:2.55057168;stroke-linecap:round;stroke-linejoin:round;stroke-miterlimit:4;stroke-opacity:0;stroke-dasharray:none" />
      <rect
         y="-456.7854"
         x="203.26413"
         height="623.19293"
         width="386.3757"
         id="rect3005"
         style="opacity:0.98000004;fill:#ffffff;fill-opacity:1;stroke:#000000;stroke-width:2.41365027;stroke-linecap:round;stroke-linejoin:round;stroke-miterlimit:4;stroke-opacity:0;stroke-dasharray:none" />
      <rect
         ry="7.4050865"
         rx="10.608254"
         y="-519.69916"
         x="329.41516"
         height="17.952642"
         width="134.07367"
         id="rect3009"
         style="opacity:0.98000004;fill:#ffffff;fill-opacity:1;stroke:#000000;stroke-width:1.92711282;stroke-linecap:round;stroke-linejoin:round;stroke-miterlimit:4;stroke-opacity:0;stroke-dasharray:none" />
      <path
         transform="translate(166.6244,-686.8827)"
         d="m 92.857145,175.93361 a 16.428572,16.428572 0 1 1 -32.857143,0 16.428572,16.428572 0 1 1 32.857143,0 z"
         sodipodi:ry="16.428572"
         sodipodi:rx="16.428572"
         sodipodi:cy="175.93361"
         sodipodi:cx="76.428574"
         id="path3796"
         style="fill:#ffffff;fill-opacity:1;stroke:#000000;stroke-width:2.29999995;stroke-linecap:round;stroke-linejoin:round;stroke-miterlimit:4;stroke-opacity:0;stroke-dasharray:none"
         sodipodi:type="arc" />
    </g>
    <text
       xml:space="preserve"
       style="font-size:40px;font-style:normal;font-variant:normal;font-weight:bold;font-stretch:normal;line-height:125%;letter-spacing:0px;word-spacing:0px;fill:#000000;fill-opacity:1;stroke:none;font-family:Anonymous Pro for Powerline;-inkscape-font-specification:Anonymous Pro for Powerline"
       x="-96.974648"
       y="801.84436"
       id="text3827"
       sodipodi:linespacing="125%"><tspan
         sodipodi:role="line"
         id="tspan3829"
         x="-96.974648"
         y="801.84436" /></text>
  </g>
</svg>
